<?xml version="1.0" encoding="UTF-8" standalone="no"?>
<!-- Created with Inkscape (http://www.inkscape.org/) -->

<svg
   width="286"
   height="286"
   viewBox="0 0 75.670833 75.670834"
   version="1.1"
   id="svg5"
   xml:space="preserve"
   inkscape:version="1.2.2 (b0a8486541, 2022-12-01)"
   sodipodi:docname="icon.svg"
   xmlns:inkscape="http://www.inkscape.org/namespaces/inkscape"
   xmlns:sodipodi="http://sodipodi.sourceforge.net/DTD/sodipodi-0.dtd"
   xmlns="http://www.w3.org/2000/svg"
   xmlns:svg="http://www.w3.org/2000/svg"><sodipodi:namedview
     id="namedview7"
     pagecolor="#ffffff"
     bordercolor="#666666"
     borderopacity="1.0"
     inkscape:showpageshadow="false"
     inkscape:pageopacity="0"
     inkscape:pagecheckerboard="0"
     inkscape:deskcolor="#d1d1d1"
     inkscape:document-units="mm"
     showgrid="false"
     inkscape:zoom="1.3933444"
     inkscape:cx="146.05147"
     inkscape:cy="80.023287"
     inkscape:window-width="1920"
     inkscape:window-height="996"
     inkscape:window-x="0"
     inkscape:window-y="30"
     inkscape:window-maximized="1"
     inkscape:current-layer="layer1"
     showborder="true"
     borderlayer="true"
     shape-rendering="auto"><inkscape:grid
       type="xygrid"
       id="grid40894"
       originx="-76.913199"
       originy="-94.342491" /></sodipodi:namedview><defs
     id="defs2" /><g
     inkscape:label="Слой 1"
     inkscape:groupmode="layer"
     id="layer1"
     transform="translate(-76.913196,-94.342483)"><g
       id="g48955"
       transform="translate(0.11853322,9.1246934)"><path
         style="display:inline;fill:#cba790;fill-opacity:1;fill-rule:evenodd;stroke:#40311f;stroke-width:0.264583px;stroke-linecap:butt;stroke-linejoin:miter;stroke-opacity:1"
         d="m 104.19412,94.48045 -22.522739,3.427746 19.071739,8.974554 15.43373,-5.19493 z"
         id="path43909" /><path
         style="display:inline;fill:#745c4f;fill-opacity:1;fill-rule:evenodd;stroke:#40311f;stroke-width:0.264583px;stroke-linecap:butt;stroke-linejoin:miter;stroke-opacity:1"
         d="m 116.17685,101.68782 7.79435,3.60678 10.44398,-9.519832 -30.22106,-1.294318 z"
         id="path43907" /><path
         style="display:inline;fill:#dec7b9;fill-opacity:1;fill-rule:evenodd;stroke:#40311f;stroke-width:0.264583px;stroke-linecap:butt;stroke-linejoin:miter;stroke-opacity:1"
         d="m 81.671381,97.908196 -4.495136,20.010704 3.543824,-3.06949 11.726736,4.10682 8.296315,-12.07348 z"
         id="path405" /><path
         style="display:inline;fill:#000000;fill-opacity:1;fill-rule:evenodd;stroke:#ffffff;stroke-width:0.264583px;stroke-linecap:butt;stroke-linejoin:miter;stroke-opacity:1"
         d="m 77.176243,117.9189 3.543826,-3.06949 11.726736,4.10682 5.227749,5.19329 -1.771458,3.3518 -4.263636,-4.83037 z"
         id="path43974" /><path
         style="fill:#ffffff;fill-rule:evenodd;stroke:none;stroke-width:0.264583px;stroke-linecap:butt;stroke-linejoin:miter;stroke-opacity:1"
         d="m 79.829513,118.79066 0.656266,-0.47028 0.330127,-1.21306 0.369549,0.44816 0.985454,-2.20728 -0.274967,2.71947 0.235247,-0.8358 0.222361,1.49048 0.582161,1.00504 z"
         id="path44135"
         sodipodi:nodetypes="cccccccccc" /><path
         style="fill:#ffffff;fill-rule:evenodd;stroke:none;stroke-width:0.264583px;stroke-linecap:butt;stroke-linejoin:miter;stroke-opacity:1"
         d="m 87.460584,117.21001 -0.857388,1.65039 0.578168,-1.3548 -1.260031,2.37711 -0.923682,0.68163 5.474835,1.72454 0.01484,-1.30832 -0.295923,0.71447 0.277201,-1.76644 -0.313589,0.64549 0.56146,-2.22383 -1.008608,-0.3177 -0.716346,1.79524 0.506183,-1.81723 -0.579152,-0.0805 -0.584342,-0.37124 -0.209516,0.60186 -0.04931,-0.71555 -0.403706,-0.13341 -0.313535,1.90515 z"
         id="path44137"
         sodipodi:nodetypes="ccccccccccccccccccccc" /><path
         style="fill:#dec7b9;fill-opacity:1;fill-rule:evenodd;stroke:#000000;stroke-width:0.264583px;stroke-linecap:butt;stroke-linejoin:miter;stroke-opacity:1"
         d="m 97.674553,124.14952 -1.771459,3.3518 -1.475187,14.48316 3.409386,-4.76785 24.563437,9.18818 -13.46613,-29.35202 z"
         id="path44141" /><path
         style="fill:#cba790;fill-opacity:1;fill-rule:evenodd;stroke:#000000;stroke-width:0.264583px;stroke-linecap:butt;stroke-linejoin:miter;stroke-opacity:1"
         d="m 108.9346,117.05279 16.98962,-6.9264 16.03037,19.05406 -19.55386,17.22436 z"
         id="path45283" /><path
         style="fill:#745c4f;fill-opacity:1;fill-rule:evenodd;stroke:#000000;stroke-width:0.264583px;stroke-linecap:butt;stroke-linejoin:miter;stroke-opacity:1"
         d="m 125.92422,110.12639 24.24655,-2.58607 -8.21618,21.64013 z"
         id="path45768" /><path
         style="fill:#000000;fill-rule:evenodd;stroke:#ffffff;stroke-width:0.264583px;stroke-linecap:butt;stroke-linejoin:miter;stroke-opacity:1"
         d="m 92.446805,118.95623 8.296315,-12.07348 8.19148,10.17004 -11.260047,7.09673 z"
         id="path45839" /><path
         style="fill:#ffffff;fill-rule:evenodd;stroke:none;stroke-width:0.264583px;stroke-linecap:butt;stroke-linejoin:miter;stroke-opacity:1"
         d="m 91.639458,122.67095 2.02865,-2.50147 -0.743357,2.74436 1.142121,-2.34822 0.213003,1.34748 0.387804,-0.43611 0.494675,0.11899 2.419475,-2.12886 -1.630683,2.04148 -0.254009,0.72223 0.389029,0.84432 -0.751821,2.7963 1.316792,-2.7386 -0.56868,2.71867 1.182788,-2.10861 -1.362151,3.75841 z"
         id="path44139"
         sodipodi:nodetypes="ccccccccccccccccc" /><path
         style="fill:#000000;fill-opacity:1;fill-rule:evenodd;stroke:#ffffff;stroke-width:0.264583px;stroke-linecap:butt;stroke-linejoin:miter;stroke-opacity:1"
         d="m 100.74312,106.88275 15.43373,-5.19493 9.74737,8.43857 -16.98962,6.9264 z"
         id="path45841" /><path
         style="fill:#ffffff;fill-rule:evenodd;stroke:none;stroke-width:0.264583px;stroke-linecap:butt;stroke-linejoin:miter;stroke-opacity:1"
         d="m 107.89028,105.95884 1.76064,0.42725 -0.89415,-0.93453 1.51398,0.48407 0.76909,-0.48407 0.50586,-0.69263 0.0975,0.69263 h 1.05316 l 1.15496,-1.85589 -0.13384,1.85589 0.65239,-0.69594 0.18306,0.69594 h 1.31132 l 1.43324,0.48887 0.91212,-0.48887 -0.5905,0.89194 1.206,0.68159 2.47526,0.36084 -2.37497,0.33018 0.50829,1.00052 v 1.2509 l 1.04918,0.68632 -1.53613,-0.0446 0.24824,1.27897 -0.60414,-0.93131 -1.20804,1.04097 -1.82007,0.50271 -0.4197,0.74845 -0.1607,-0.89368 -0.84591,0.60048 -0.31551,-0.70546 -0.95602,0.17223 -0.86251,2.27661 0.0531,-2.14167 -0.53055,0.42389 -0.33449,-0.95558 -1.2078,0.22445 -0.85186,-0.34265 -1.10274,0.15267 0.7287,-0.83876 -0.30653,-0.37588 -0.89615,-0.3384 1.20268,-0.53975 h -1.55607 l 1.24954,-0.59213 0.30653,-0.59145 -1.22672,-0.36756 -0.4124,-0.22891 1.33259,-0.0454 0.30653,-0.28831 -0.92321,-0.46779 -0.19998,-0.36084 h 1.12319 l 0.37404,-0.36369 z"
         id="path45843" /><path
         style="display:inline;fill:none;fill-opacity:1;fill-rule:evenodd;stroke:#000000;stroke-width:0.264583px;stroke-linecap:butt;stroke-linejoin:miter;stroke-opacity:1"
         d="M 95.903096,127.50132 91.63946,122.67095 77.176243,117.9189"
         id="path45905"
         sodipodi:nodetypes="ccc" /><path
         style="fill:#000000;fill-opacity:1;fill-rule:evenodd;stroke:#ffffff;stroke-width:0.264583px;stroke-linecap:butt;stroke-linejoin:miter;stroke-opacity:1"
         d="m 116.17685,101.68782 7.79435,3.60678 10.44398,-9.519832 2.63577,1.943494 -7.31665,8.943138 3.2056,2.714 -7.01568,0.75099 z"
         id="path45845"
         sodipodi:nodetypes="cccccccc" /><path
         style="fill:#ffffff;fill-rule:evenodd;stroke:none;stroke-width:0.264583px;stroke-linecap:butt;stroke-linejoin:miter;stroke-opacity:1"
         d="m 129.89759,100.01303 -0.4087,2.58956 0.0906,1.23605 0.70118,-0.82943 -0.0347,0.88733 0.36861,0.81172 0.25154,0.29544 -1.18228,1.6387 3.15858,2.71224 -3.30383,0.39667 0.63877,-0.62715 -0.87793,-0.0348 -0.2336,-0.49236 0.59477,0.3349 -1.06115,-0.78994 0.76621,0.22856 -1.40003,-0.70469 0.55955,-0.15478 -0.89101,0.003 0.28662,-0.76957 -0.60521,0.58379 0.12393,-0.97437 -1.81976,0.0451 0.76671,-0.65375 0.60454,-0.64503 -0.94185,-0.13277 -0.30932,-0.47706 1.07799,0.21429 -0.16398,-1.71297 0.5599,1.08128 0.20679,-1.90262 0.63167,0.83423 0.37515,-0.8861 0.17255,-0.97865 0.35091,0.97998 z"
         id="path45847"
         sodipodi:nodetypes="cccccccccccccccccccccccccccccccccccc" /><path
         style="display:inline;fill:#000000;fill-rule:evenodd;stroke:#ffffff;stroke-width:0.264583px;stroke-linecap:butt;stroke-linejoin:miter;stroke-opacity:1"
         d="m 97.837293,137.21663 -3.409386,4.76785 29.949553,9.63041 20.99541,-16.56807 6.82406,-25.91089 -2.02616,-1.59561 -8.21618,21.64013 -19.55386,17.22436 z"
         id="path45849" /><path
         style="fill:#ffffff;fill-rule:evenodd;stroke:#000000;stroke-width:0.264583px;stroke-linecap:butt;stroke-linejoin:miter;stroke-opacity:1"
         d="m 102.5896,144.33854 10.67994,2.78722 6.11652,2.02675 1.49209,0.0387 0.18213,-1.76799 0.43944,1.06423 0.0632,-1.32118 0.0291,-0.95939 1.06261,2.29308 -0.25392,-2.09519 1.78022,2.09519 0.21103,-1.85896 0.7568,2.06618 0.29914,-1.05202 0.61477,1.24885 2.07853,-0.48191 -3.76376,3.19275 z"
         id="path45873"
         sodipodi:nodetypes="cccccccccccccccccc" /><path
         style="fill:none;fill-rule:evenodd;stroke:#ffffff;stroke-width:0.264583px;stroke-linecap:butt;stroke-linejoin:miter;stroke-opacity:1"
         d="m 123.9712,105.2946 5.63677,1.3139"
         id="path45875"
         sodipodi:nodetypes="cc" /><path
         style="fill:none;fill-rule:evenodd;stroke:#ffffff;stroke-width:0.264583px;stroke-linecap:butt;stroke-linejoin:miter;stroke-opacity:1"
         d="m 122.40071,146.40477 1.97673,5.21008"
         id="path45877" /><path
         style="fill:#ffffff;fill-rule:evenodd;stroke:#000000;stroke-width:0.264583px;stroke-linecap:butt;stroke-linejoin:miter;stroke-opacity:1"
         d="m 139.08243,139.77855 4.59889,-4.27819 -1.65608,-0.0223 1.58485,-0.44366 -2.21713,-0.85317 1.9305,-0.12298 -1.63207,-0.99237 1.08311,-0.25434 -1.06111,-1.73358 2.09061,1.86143 -1.3599,-3.15683 1.70654,2.64662 -0.56365,-2.08302 0.93569,1.64535 0.24568,-0.70473 0.20814,1.84066 0.34165,-1.13429 1.15943,-3.47355 1.88647,-5.89883 -3.03726,12.36481 z"
         id="path45881"
         sodipodi:nodetypes="ccccccccccccccccccccc" /><path
         style="fill:none;fill-rule:evenodd;stroke:#ffffff;stroke-width:0.264583px;stroke-linecap:butt;stroke-linejoin:miter;stroke-opacity:1"
         d="m 141.95459,129.18045 3.41828,5.86637"
         id="path45879" /><path
         style="fill:#ffffff;fill-opacity:1;fill-rule:evenodd;stroke:none;stroke-width:0.264583px;stroke-linecap:butt;stroke-linejoin:miter;stroke-opacity:1"
         d="m 94.481636,141.90373 2.43178,-3.35716 -0.627645,1.96943 0.9584,-0.63247 -0.901462,1.16011 1.692413,-0.0851 -1.996787,0.64 2.287522,1.18164 5.212033,2.01766 z"
         id="path45909"
         sodipodi:nodetypes="cccccccccc" /></g></g></svg>
